<?xml version="1.0" standalone="no"?>
<!DOCTYPE svg PUBLIC "-//W3C//DTD SVG 20010904//EN"
 "http://www.w3.org/TR/2001/REC-SVG-20010904/DTD/svg10.dtd">
<svg version="1.0" xmlns="http://www.w3.org/2000/svg"
 width="300.000000pt" height="300.000000pt" viewBox="0 0 300.000000 300.000000"
 preserveAspectRatio="xMidYMid meet">
<metadata>
Created by potrace 1.14, written by Peter Selinger 2001-2017
</metadata>
<g transform="translate(0.000000,300.000000) scale(0.100000,-0.100000)"
fill="#000000" stroke="none">
<path d="M0 1500 l0 -1500 1500 0 1500 0 0 1500 0 1500 -1500 0 -1500 0 0
-1500z m709 645 c38 -19 41 -30 41 -139 0 -79 -3 -97 -21 -120 -20 -25 -23
-26 -140 -26 -104 0 -121 2 -138 19 -24 24 -36 95 -27 174 10 95 26 105 164
106 63 1 102 -4 121 -14z m669 -420 l-3 -405 47 0 46 0 132 185 132 185 174 0
c96 0 174 -2 174 -5 0 -14 -324 -435 -346 -450 l-26 -17 30 -26 c28 -25 107
-139 308 -450 l73 -112 -178 0 -178 0 -147 245 -147 245 -47 0 -47 0 3 -245 4
-245 -161 0 -161 0 0 750 0 750 161 0 160 0 -3 -405z m-628 -565 l0 -530 -160
0 -160 0 0 530 0 530 160 0 160 0 0 -530z m1804 -221 c33 -16 46 -56 46 -149
0 -86 -13 -136 -40 -150 -10 -6 -63 -10 -118 -10 -141 0 -146 5 -150 142 -4
113 6 154 40 168 33 13 193 12 222 -1z"/>
</g>
</svg>
