<svg width="121" height="26" viewBox="0 0 121 26" fill="none" xmlns="http://www.w3.org/2000/svg">
<path d="M16.3497 11.6267C16.3774 11.8849 16.3866 12.1431 16.3866 12.4105H13.4357C13.4357 12.3921 13.4357 12.3829 13.4357 12.3644C13.4357 12.2169 13.4265 12.0694 13.4173 11.9218C13.4173 11.9126 13.4173 11.9034 13.4173 11.8849C13.4173 11.8388 13.408 11.7927 13.3988 11.7466C13.2882 10.8982 12.9746 10.096 12.4767 9.39512V17.0121C12.4859 19.382 10.5678 21.3001 8.19791 21.3093C5.82798 21.3185 3.90991 19.4004 3.90069 17.0305C3.89147 14.6606 5.80954 12.7425 8.17947 12.7333C8.64054 12.7333 9.11084 12.8071 9.55347 12.9546V7.3295V4.30485C13.0945 4.90425 15.8333 7.72603 16.322 11.2763C16.322 11.2947 16.3313 11.3224 16.3313 11.3409C16.3313 11.4423 16.3405 11.5345 16.3497 11.6267ZM13.4265 17.0305C13.4265 19.9261 11.075 22.2683 8.18868 22.2683C5.30236 22.2683 2.95088 19.9261 2.95088 17.0305V12.3829C2.95088 9.49655 5.29314 7.1543 8.18868 7.14507C8.29012 7.14507 8.39156 7.15429 8.493 7.16352V4.20342C8.39156 4.20342 8.29012 4.1942 8.18868 4.1942C3.67015 4.1942 0 7.86435 0 12.3829V17.0305C0 21.5583 3.67015 25.2192 8.19791 25.2192C12.7164 25.2192 16.3866 21.549 16.3866 17.0305V13.4065H13.4357V17.0305H13.4265ZM9.54424 0.0998535V3.0784C14.0904 3.75156 17.4563 7.65226 17.4563 12.2446V12.3644H20.4072V12.2446C20.4164 5.9555 15.6489 0.773022 9.54424 0.0998535Z" fill="url(#paint0_linear_2480_1340)"/>
<path d="M31.0424 9.16713H27.8931V6.92627H36.7758V9.16713H33.6264V18.1508H31.0222V9.16713H31.0424Z" fill="#27313f"/>
<path d="M45.4364 6.9262H48.0609V13.8305C48.0609 14.4967 47.9397 15.1023 47.7177 15.6676C47.4754 16.2328 47.1524 16.7174 46.7285 17.1211C46.3045 17.5249 45.7796 17.8479 45.174 18.0699C44.5684 18.292 43.882 18.4131 43.135 18.4131C42.4486 18.4131 41.7824 18.3122 41.197 18.0901C40.5913 17.8681 40.0664 17.5652 39.6223 17.1817C39.1782 16.7779 38.835 16.2934 38.5725 15.7281C38.3101 15.1629 38.189 14.5169 38.189 13.8103V6.90601H40.7932V13.8103C40.7932 14.1535 40.8538 14.4563 40.9547 14.7389C41.0557 15.0216 41.197 15.284 41.3988 15.4859C41.6007 15.6878 41.843 15.8695 42.1256 15.9906C42.4082 16.1117 42.7514 16.1723 43.135 16.1723C43.4984 16.1723 43.8416 16.1117 44.1242 15.9906C44.4069 15.8695 44.6491 15.708 44.851 15.4859C45.0529 15.284 45.1942 15.0216 45.2951 14.7389C45.3961 14.4563 45.4566 14.1333 45.4566 13.8103V6.9262H45.4364Z" fill="#27313f"/>
<path d="M60.5168 18.171H58.2558L52.8858 11.4282V18.171H50.2614V6.92627H52.5426L57.8924 13.6489V6.92627H60.4966V18.171H60.5168Z" fill="#27313f"/>
<path d="M62.8586 6.92627H70.7723V9.18732H65.4831V11.4887H70.0254V13.7296H65.4831V15.9099H70.8531V18.1508H62.8586V6.92627Z" fill="#27313f"/>
<path d="M72.2057 18.1708L72.1855 16.1924L77.9189 9.18715H72.5287V6.94629H81.3711V8.88433L75.6377 15.9501H81.5729V18.191H72.2057V18.1708Z" fill="#27313f"/>
<path d="M87.3467 6.92627H89.9711V11.4887H94.8768V6.92627H97.5012V18.171H94.8768V13.7296H89.9711V18.171H87.3467V6.92627Z" fill="#27313f"/>
<path d="M106.929 6.9262H109.553V13.8305C109.553 14.4967 109.432 15.1023 109.21 15.6676C108.988 16.2328 108.645 16.7174 108.221 17.1211C107.797 17.5249 107.272 17.8479 106.666 18.0699C106.061 18.292 105.374 18.4131 104.627 18.4131C103.941 18.4131 103.275 18.3122 102.689 18.0901C102.084 17.8681 101.559 17.5652 101.115 17.1817C100.671 16.7779 100.327 16.2934 100.065 15.7281C99.8025 15.1629 99.6814 14.5169 99.6814 13.8103V6.90601H102.286V13.8103C102.286 14.1535 102.346 14.4563 102.447 14.7389C102.548 15.0216 102.689 15.284 102.891 15.4859C103.093 15.6878 103.335 15.8695 103.618 15.9906C103.901 16.1117 104.244 16.1723 104.627 16.1723C104.991 16.1723 105.334 16.1117 105.617 15.9906C105.899 15.8695 106.142 15.708 106.343 15.4859C106.545 15.284 106.687 15.0216 106.788 14.7389C106.888 14.4563 106.949 14.1333 106.949 13.8103V6.9262H106.929Z" fill="#27313f"/>
<path d="M111.754 18.171V6.92627H116.761C117.306 6.92627 117.81 6.98683 118.254 7.12815C118.699 7.26946 119.082 7.47134 119.405 7.73379C119.728 7.99623 119.97 8.31924 120.132 8.723C120.293 9.12676 120.394 9.5507 120.394 10.0554C120.394 10.2775 120.354 10.5197 120.273 10.7418C120.192 10.9639 120.092 11.1657 119.97 11.3676C119.849 11.5695 119.708 11.731 119.546 11.8723C119.385 12.0136 119.203 12.1348 119.022 12.1953C119.284 12.2963 119.546 12.4174 119.789 12.5789C120.031 12.7404 120.233 12.9423 120.415 13.1643C120.596 13.3864 120.738 13.6489 120.838 13.9113C120.939 14.1939 121 14.4766 121 14.7794C121 15.385 120.899 15.9099 120.677 16.3339C120.455 16.7578 120.172 17.101 119.809 17.3634C119.446 17.6259 119.042 17.8278 118.598 17.9489C118.153 18.07 117.689 18.1306 117.225 18.1306H111.754V18.171ZM114.358 11.4282H116.599C116.74 11.4282 116.861 11.408 117.003 11.3474C117.144 11.2869 117.245 11.2061 117.366 11.1052C117.467 11.0042 117.548 10.8831 117.629 10.7418C117.689 10.6005 117.73 10.439 117.73 10.2573C117.73 10.0958 117.689 9.93427 117.629 9.77277C117.568 9.63145 117.487 9.51032 117.386 9.3892C117.285 9.28826 117.164 9.20751 117.023 9.14694C116.882 9.08638 116.761 9.06619 116.619 9.06619H114.378V11.4282H114.358ZM116.962 16.0108C117.104 16.0108 117.245 15.9907 117.407 15.9301C117.568 15.8695 117.709 15.7888 117.83 15.6878C117.952 15.5869 118.073 15.4456 118.153 15.2841C118.234 15.1226 118.295 14.9207 118.295 14.6986C118.295 14.4968 118.254 14.3151 118.194 14.1737C118.133 14.0324 118.032 13.8911 117.911 13.77C117.79 13.6489 117.649 13.5681 117.487 13.5075C117.326 13.447 117.144 13.4066 116.962 13.4066H114.358V16.0108H116.962Z" fill="#27313f"/>
<defs>
<linearGradient id="paint0_linear_2480_1340" x1="12.2282" y1="0.544588" x2="7.86511" y2="25.2888" gradientUnits="userSpaceOnUse">
<stop stop-color="#00DAB9"/>
<stop offset="1" stop-color="#0CC4EF"/>
</linearGradient>
</defs>
</svg>
