<svg width="242" height="74" viewBox="0 0 242 74" fill="none" xmlns="http://www.w3.org/2000/svg">
<path d="M70.125 46L64.42 22.095H69.495L73.59 41.345H75.025L79.05 22.095H84.125L78.525 46H70.125ZM95.5654 46V22.095H111.455V26.12H100.395V31.93H109.355V35.885H100.395V41.975H111.455V46H95.5654ZM123.593 46V22.095H132.938C134.851 22.095 136.449 22.34 137.733 22.83C139.039 23.32 140.008 24.1367 140.638 25.28C141.291 26.4233 141.618 27.975 141.618 29.935C141.618 31.6617 141.303 33.12 140.673 34.31C140.066 35.4767 139.133 36.34 137.873 36.9L141.618 46H136.543L133.393 37.985H128.423V46H123.593ZM128.423 34.03H133.043C133.929 34.03 134.641 33.8667 135.178 33.54C135.714 33.19 136.099 32.7117 136.333 32.105C136.566 31.475 136.683 30.7633 136.683 29.97C136.683 28.6633 136.379 27.6833 135.773 27.03C135.166 26.3767 134.221 26.05 132.938 26.05H128.423V34.03ZM153.91 46V22.095H158.74V46H153.91ZM176.543 46V26.19H170.103V22.095H187.603V26.19H181.373V46H176.543ZM204.309 46V36.935L196.994 22.095H202.244L206.724 31.685L211.274 22.095H216.489L209.139 36.935V46H204.309Z" fill="#4A3057"/>
<path d="M29.235 47.5822C29.235 47.5822 29.0244 47.653 28.6383 47.7886C27.6672 48.1424 25.6137 48.9208 23.2327 50.1119C22.478 50.4834 21.6882 50.8962 20.8984 51.3503C19.2545 52.2878 17.5813 53.3846 16.0837 54.6406C13.6909 56.6455 11.7486 59.0455 11.1343 61.7875C11.0524 62.1531 10.602 62.271 10.3621 61.9939L6.69399 57.8072C6.69399 57.8072 3.74546 57.6598 1.04849 57.6126C0.715023 57.6067 0.504414 57.2529 0.65652 56.9581C1.58086 55.1419 4.57034 49.935 9.70103 47.0162C10.1866 46.739 10.6897 46.4796 11.2221 46.2496C11.9124 45.9489 12.6379 45.713 13.3808 45.5302C16.6453 44.7577 20.2724 45.1351 23.2327 45.7661C26.1227 46.3793 28.3751 47.2343 29.042 47.4938C29.1765 47.5469 29.2409 47.5764 29.2409 47.5764L29.235 47.5822Z" fill="url(#paint0_linear_15_3423)"/>
<path opacity="0.1" d="M20.8869 51.3502C19.2429 52.2878 17.5698 53.3846 16.0721 54.6406C11.0409 51.25 9.80061 47.4053 9.68945 47.0161C10.175 46.739 10.6781 46.4795 11.2105 46.2496C11.9009 45.9488 12.6263 45.713 13.3693 45.5302C14.2585 45.6717 15.0015 45.7955 15.0424 45.8073C15.0775 45.825 16.1598 46.621 17.365 47.5115C17.4703 47.5822 17.5698 47.6589 17.6751 47.7355C19.1376 48.8264 20.6528 49.9527 20.6528 49.9527C20.6528 49.9527 20.7874 50.5365 20.881 51.3443L20.8869 51.3502Z" fill="black"/>
<path d="M20.0737 47.5822C20.0737 47.5822 20.2843 47.653 20.6704 47.7886C21.6416 48.1424 23.695 48.9208 26.0761 50.1119C26.8308 50.4834 27.6206 50.8962 28.4103 51.3503C30.0543 52.2878 31.7274 53.3846 33.2251 54.6406C35.6179 56.6455 37.5602 59.0455 38.1744 61.7875C38.2563 62.1531 38.7068 62.271 38.9467 61.9939L42.6148 57.8072C42.6148 57.8072 45.5633 57.6598 48.2603 57.6126C48.5937 57.6067 48.8044 57.2529 48.6522 56.9581C47.7279 55.1419 44.7384 49.935 39.6077 47.0162C39.1222 46.739 38.619 46.4796 38.0867 46.2496C37.3963 45.9489 36.6709 45.713 35.9279 45.5302C32.6635 44.7577 29.0363 45.1351 26.0761 45.7661C23.1861 46.3793 20.9337 47.2343 20.2668 47.4938C20.1322 47.5469 20.0679 47.5764 20.0679 47.5764L20.0737 47.5822Z" fill="url(#paint1_linear_15_3423)"/>
<path opacity="0.1" d="M28.416 51.3502C30.0599 52.2878 31.7331 53.3846 33.2308 54.6406C38.262 51.25 39.5023 47.4053 39.6134 47.0161C39.1278 46.739 38.6247 46.4795 38.0923 46.2496C37.402 45.9488 36.6766 45.713 35.9336 45.5302C35.0444 45.6717 34.3014 45.7955 34.2604 45.8073C34.2253 45.825 33.143 46.621 31.9379 47.5115C31.8326 47.5822 31.7331 47.6589 31.6278 47.7355C30.1652 48.8264 28.65 49.9527 28.65 49.9527C28.65 49.9527 28.5155 50.5365 28.4219 51.3443L28.416 51.3502Z" fill="black"/>
<path d="M24.7129 45.6068C24.7129 45.6068 20.647 49.2805 10.3212 47.0515C3.36529 39.7514 -1.39682 28.4709 0.779475 11.7891C0.919881 10.7159 1.82667 9.90214 2.90312 9.90214H5.50064C11.7253 9.90214 15.8146 8.19209 20.4071 5.86877C15.8673 8.55768 10.801 11.2348 10.1867 19.6671C10.0053 36.3785 20.5826 43.4781 24.7129 45.6068Z" fill="url(#paint2_linear_15_3423)"/>
<path opacity="0.2" d="M24.7128 45.6068C24.7128 45.6068 20.6468 49.2805 10.3211 47.0515C9.29733 45.9783 8.32033 44.8167 7.41354 43.5724C4.76337 39.9518 2.64558 35.5706 1.42287 30.3225C1.34682 29.9982 1.27077 29.6679 1.20056 29.3377C0.773496 27.2857 0.480982 25.1039 0.340576 22.7924C5.2548 22.8749 9.70684 25.7997 11.731 30.2576C11.731 30.2576 11.733 30.2616 11.7369 30.2694C13.7611 36.4138 17.4175 40.4354 20.5708 42.9179C20.9569 43.2304 21.343 43.5135 21.7116 43.7788C22.1211 44.0678 22.5131 44.3272 22.8816 44.5572C23.572 44.9936 24.1921 45.3415 24.7128 45.6068Z" fill="#DB5863"/>
<path d="M46.669 33.8428C43.1179 45.0997 33.5878 53.3256 26.2457 55.8317C25.2102 56.1855 24.0811 56.1737 23.0456 55.8022H23.0398C22.3553 55.5605 16.1599 53.2548 10.3213 47.0515C20.647 49.2804 24.7129 45.6068 24.7129 45.6068C30.2707 42.4638 37.5718 36.9091 38.9291 21.9196C38.9876 21.1589 39.0168 20.41 39.0344 19.6376C39.2976 19.7378 39.6662 19.8558 40.0055 19.9796C46.6514 22.6921 47.605 30.977 45.5984 36.6437C45.7622 36.2251 46.4642 34.3853 46.669 33.8428Z" fill="url(#paint3_linear_15_3423)"/>
<path opacity="0.25" d="M46.669 33.8428C45.8324 36.5022 44.6624 38.9906 43.2642 41.2727C41.7314 43.7788 39.9295 46.0372 37.9931 48.0067C37.1448 48.8618 36.279 49.6637 35.4014 50.4008L35.3137 50.3183C31.9381 47.1222 31.2828 42.0982 33.4591 38.1179C34.401 36.8324 35.2786 35.3583 36.0508 33.66C36.1561 33.43 36.2614 33.1942 36.355 32.9583C37.607 29.9863 38.5313 26.3716 38.9291 21.9196C38.9701 21.3948 38.9935 20.87 39.011 20.3452C39.0227 20.1093 39.0286 19.8734 39.0344 19.6376C39.2977 19.7378 39.6663 19.8499 40.0056 19.9796C46.6515 22.6921 47.6051 30.977 45.5984 36.6437C45.7622 36.2251 46.4643 34.3853 46.669 33.8428Z" fill="#2BA38D"/>
<path d="M48.9916 18.9359C48.9916 23.9953 48.2954 29.0724 46.6749 33.8428C46.4701 34.3853 45.7681 36.2251 45.6043 36.6438C47.6109 30.977 46.6573 22.6921 40.0114 19.9796C35.5769 18.8121 31.6397 17.845 28.1822 16.5005C25.9298 15.6219 23.4318 15.6042 21.1911 16.5123C17.9618 17.8214 14.4867 18.8003 10.1985 19.6671C10.8011 12.0898 14.9372 8.91145 19.6233 6.34048C22.5659 4.72477 26.0878 4.60094 29.1182 6.04564C33.0906 7.93849 39.0052 10.2323 43.8784 9.9021H46.5052C47.6226 9.9021 48.5528 10.7689 48.6347 11.8952C48.8102 14.248 49.0267 16.99 48.9974 18.9359H48.9916Z" fill="url(#paint4_linear_15_3423)"/>
<path opacity="0.25" d="M45.7213 9.90212L43.0828 12.4082C39.1339 16.1586 33.2719 17.674 28.0359 16.4416C27.5796 16.2706 27.1116 16.1409 26.6377 16.0406C24.8183 15.6573 22.9228 15.7989 21.1794 16.5065C18.1958 17.7153 15.0074 18.647 11.1579 19.4666C10.8361 19.5315 10.5144 19.6022 10.1868 19.6671C10.7893 12.0898 14.9255 8.91147 19.6115 6.3405C21.3725 5.37343 23.3382 4.94297 25.2863 5.06091C26.4797 5.13167 27.6615 5.41471 28.7847 5.89824C28.8959 5.94542 29.0012 5.99259 29.1065 6.04566C30.4228 6.67071 31.9556 7.34294 33.5937 7.94441C34.8105 8.39846 36.0859 8.81123 37.3788 9.14734C37.4139 9.15324 37.4431 9.16503 37.4724 9.17093C39.637 9.71932 41.8425 10.0377 43.8667 9.90212H45.7213Z" fill="#9E68DE"/>
<path opacity="0.1" d="M44.282 39.4978C46.1833 27.4389 38.7827 23.3289 38.7827 23.3289C38.7944 23.0931 39.0284 19.8734 39.0343 19.6376C39.2975 19.7378 39.6661 19.8499 40.0054 19.9796C46.6513 22.6921 47.6049 30.977 45.5983 36.6437C45.7621 36.2251 46.4641 34.3853 46.6689 33.8428C45.8323 36.5022 45.6802 37.2157 44.282 39.4978Z" fill="black"/>
<path opacity="0.1" d="M24.7128 45.6068C24.7128 45.6068 20.6468 49.2805 10.3211 47.0515C9.29733 45.9783 9.55474 46.4088 8.64795 45.1646C15.5337 46.9395 19.9682 44.6692 21.4893 43.6196C22.1796 44.056 24.1921 45.3474 24.7128 45.6127V45.6068Z" fill="black"/>
<path opacity="0.1" d="M14.2059 18.759C13.8841 18.8239 10.5144 19.6022 10.1868 19.6671C10.7893 12.0898 14.9255 8.91147 19.6115 6.3405C21.3725 5.37343 23.3382 4.94297 25.2863 5.06091C16.4699 9.87264 14.5043 15.3507 14.2059 18.759Z" fill="black"/>
<g style="mix-blend-mode:overlay" opacity="0.4">
<path d="M19.6348 6.36414C17.6516 7.70269 15.4343 8.74642 13.8314 10.5921C10.4324 14.1478 9.75372 19.4195 10.4207 24.131C10.7249 26.5251 11.3391 28.872 12.088 31.1658L12.0353 31.1835C11.8072 30.6233 11.5849 30.0572 11.3742 29.4911L10.7951 27.7634C8.04545 18.2225 10.0287 10.256 19.6407 6.36414H19.6348Z" fill="white"/>
</g>
<g style="mix-blend-mode:overlay" opacity="0.4">
<path d="M30.7212 17.3674C32.6108 17.6976 35.3253 18.3227 37.2267 18.7473C38.3558 19.0126 39.3561 19.2013 40.497 19.5374C43.8433 20.7522 45.9728 24.1664 46.5871 27.5334C46.9439 29.7211 46.9673 32.2567 46.277 34.2734C46.6105 32.0739 46.628 29.8095 46.1483 27.6336C45.3527 23.8715 42.6557 20.2332 38.7126 19.6259C36.0449 18.9478 33.3421 18.1871 30.7036 17.4323L30.7212 17.3733V17.3674Z" fill="white"/>
</g>
<g style="mix-blend-mode:color-dodge" opacity="0.75">
<path d="M10.333 47.0278C14.5627 48.101 19.2488 48.3015 23.2679 46.3733C27.252 44.5276 30.8908 41.7267 33.4415 38.1061L33.4883 38.1415C32.956 39.1262 32.2773 40.0225 31.5636 40.8952C27.8604 45.0347 22.5835 48.4372 16.8853 48.272C14.6915 48.1836 12.2285 47.9182 10.333 47.0278Z" fill="white"/>
</g>
<defs>
<linearGradient id="paint0_linear_15_3423" x1="7.23806" y1="60.6494" x2="17.3738" y2="49.0474" gradientUnits="userSpaceOnUse">
<stop stop-color="#BFF8BA"/>
<stop offset="0.23" stop-color="#90EEC4"/>
<stop offset="0.6" stop-color="#4DE0D3"/>
<stop offset="0.86" stop-color="#23D7DC"/>
<stop offset="1" stop-color="#13D4E0"/>
</linearGradient>
<linearGradient id="paint1_linear_15_3423" x1="42.9073" y1="61.4867" x2="29.2072" y2="45.9856" gradientUnits="userSpaceOnUse">
<stop stop-color="#FF8AC2"/>
<stop offset="0.23" stop-color="#FF9AC0"/>
<stop offset="0.69" stop-color="#FFC3BD"/>
<stop offset="1" stop-color="#FFE4BB"/>
</linearGradient>
<linearGradient id="paint2_linear_15_3423" x1="12.48" y1="47.7709" x2="12.48" y2="5.86877" gradientUnits="userSpaceOnUse">
<stop stop-color="#FF8AC2"/>
<stop offset="0.23" stop-color="#FF9AC0"/>
<stop offset="0.69" stop-color="#FFC3BD"/>
<stop offset="1" stop-color="#FFE4BB"/>
</linearGradient>
<linearGradient id="paint3_linear_15_3423" x1="18.4005" y1="53.8327" x2="45.7422" y2="24.4645" gradientUnits="userSpaceOnUse">
<stop stop-color="#BFF8BA"/>
<stop offset="0.23" stop-color="#90EEC4"/>
<stop offset="0.6" stop-color="#4DE0D3"/>
<stop offset="0.86" stop-color="#23D7DC"/>
<stop offset="1" stop-color="#13D4E0"/>
</linearGradient>
<linearGradient id="paint4_linear_15_3423" x1="10.1926" y1="20.8405" x2="48.9916" y2="20.8405" gradientUnits="userSpaceOnUse">
<stop stop-color="#9866C7"/>
<stop offset="0.17" stop-color="#9E6ACA"/>
<stop offset="0.41" stop-color="#B178D3"/>
<stop offset="0.69" stop-color="#CF8FE3"/>
<stop offset="0.99" stop-color="#F9AEF8"/>
<stop offset="1" stop-color="#FAAFF9"/>
</linearGradient>
</defs>
</svg>
